<svg xmlns="http://www.w3.org/2000/svg" width="164" height="30">
    <path fill-rule="evenodd" fill="#FFF" d="M161.001 24.735h-5.721l-3.724-4.511-3.724 4.511h-5.743l6.597-7.965-6.568-7.962h5.712l3.726 4.497 3.724-4.497h5.721l-6.596 7.963 6.596 7.964zM135.392 10.1h4.507v14.635h-4.507V10.1zm0-5.126h4.507V9.17h-4.507V4.974zm-6.539 11.797c0-1.036-.379-1.898-1.158-2.635-.779-.736-1.686-1.094-2.769-1.094-1.098 0-2.011.358-2.792 1.094-.779.737-1.158 1.599-1.158 2.635v7.964h-4.505v-7.964c0-2.186.834-4.085 2.48-5.641 1.648-1.554 3.659-2.343 5.975-2.343 2.319 0 4.323.791 5.957 2.348 1.641 1.551 2.475 3.45 2.475 5.636v7.964h-4.505v-7.964zm-18.912 7.001a8.46 8.46 0 0 1-3.926.942c-2.318 0-4.329-.788-5.975-2.342-1.631-1.543-2.459-3.433-2.459-5.621 0-2.183.826-4.081 2.454-5.636 1.656-1.548 3.665-2.328 5.98-2.328 2.298 0 4.292.774 5.924 2.298 1.648 1.54 2.49 3.422 2.508 5.594v8.056h-4.506v-.963zm-1.158-9.656c-.771-.738-1.675-1.095-2.768-1.095-1.1 0-2.013.36-2.79 1.095-.764.731-1.139 1.594-1.139 2.635 0 1.027.375 1.885 1.144 2.622.772.729 1.683 1.087 2.785 1.087 1.094 0 1.997-.357 2.76-1.087.788-.743 1.166-1.598 1.166-2.622 0-1.037-.378-1.898-1.158-2.635zm-17.555 1.192c0-.635-.224-1.143-.705-1.599-.482-.453-1.014-.667-1.671-.667-.674 0-1.21.213-1.692.667-.473.447-.697.954-.708 1.596v9.43h-4.505v-9.447c0-.631-.221-1.13-.695-1.569-.486-.468-1.015-.677-1.682-.677-.671 0-1.21.213-1.691.668-.464.446-.685.957-.685 1.598v9.427h-4.506v-9.427c0-1.781.674-3.326 2.001-4.599 1.36-1.266 2.998-1.901 4.881-1.901 1.806 0 3.362.562 4.638 1.674 1.268-1.114 2.826-1.674 4.644-1.674 1.889 0 3.522.638 4.854 1.895 1.347 1.272 2.029 2.822 2.029 4.605v9.427h-4.507v-9.427zM70.7 18.976c.15.07.225.234.162.38l-.443 1.027c-.064.147-.234.213-.394.168a7.53 7.53 0 0 1-.875 1.211.291.291 0 0 1 0 .428l-.829.784a.336.336 0 0 1-.451.002c-.38.297-.781.555-1.199.778a.292.292 0 0 1-.169.376l-1.083.431a.327.327 0 0 1-.397-.139 8.55 8.55 0 0 1-1.54.281.311.311 0 0 1-.313.286l-1.174.001a.31.31 0 0 1-.314-.287 8.702 8.702 0 0 1-1.441-.259.325.325 0 0 1-.397.147l-1.087-.418a.291.291 0 0 1-.176-.363 8.542 8.542 0 0 1-1.296-.831.329.329 0 0 1-.439-.005l-.831-.784a.286.286 0 0 1-.005-.414 7.994 7.994 0 0 1-.825-1.143c-.156.05-.33-.014-.395-.161l-.454-1.02c-.065-.146.006-.307.151-.38a7.413 7.413 0 0 1-.292-1.446c-.173-.004-.314-.136-.314-.3v-1.108c0-.165.143-.3.317-.302.049-.464.14-.913.268-1.348-.153-.068-.229-.234-.164-.384l.442-1.025c.062-.146.238-.214.396-.167.244-.425.535-.833.87-1.221a.29.29 0 0 1 .005-.418l.829-.784a.331.331 0 0 1 .441-.005 8.43 8.43 0 0 1 1.207-.779.293.293 0 0 1 .17-.372l1.081-.43a.326.326 0 0 1 .397.138 8.82 8.82 0 0 1 1.542-.281.311.311 0 0 1 .314-.287h1.174c.168 0 .303.13.313.287a8.67 8.67 0 0 1 1.44.258.325.325 0 0 1 .396-.146l1.088.417c.154.06.225.221.176.369.449.233.879.51 1.286.831a.332.332 0 0 1 .45 0l.832.784a.288.288 0 0 1 0 .427l-.001.003c.312.358.582.736.814 1.127.161-.058.343.009.41.16l.456 1.022c.066.146-.008.312-.156.382.143.464.242.946.294 1.443.173.003.316.136.316.3l.001 1.109c0 .164-.141.296-.314.3a7.175 7.175 0 0 1-.27 1.35zm-8.118-7.324c-2.988 0-5.422 2.296-5.422 5.119s2.434 5.12 5.422 5.12c2.99 0 5.422-2.297 5.422-5.12s-2.432-5.119-5.422-5.119zm0 9.987c-2.842 0-5.153-2.183-5.153-4.868 0-2.684 2.311-4.867 5.153-4.867 2.842 0 5.155 2.183 5.155 4.867 0 2.685-2.313 4.868-5.155 4.868zm-.397-1.183v-2.114a1.806 1.806 0 0 1-.482-.189l-1.587 1.5c.602.47 1.286.736 2.069.803zm-2.629-1.33 1.582-1.493a1.523 1.523 0 0 1-.21-.462h-2.235c.073.736.357 1.383.863 1.955zm-.868-2.701h2.222c.04-.172.114-.333.207-.482l-1.585-1.496a3.404 3.404 0 0 0-.844 1.978zm3.497-3.339a3.813 3.813 0 0 0-2.1.828l1.582 1.494c.157-.096-.567-.165.518-.208v-2.114zm.397 2.812a.956.956 0 0 0-.397.094.894.894 0 0 0-.449.433c-.011.027-.011.057-.021.083-.027.085-.056.17-.056.263 0 .109.029.211.066.307.014.033.033.062.052.093a.883.883 0 0 0 .408.379c.038.017.076.027.115.039.09.029.183.054.282.054a.92.92 0 0 0 .278-.053c.041-.013.078-.021.116-.037a.896.896 0 0 0 .413-.382c.018-.029.037-.057.052-.089a.868.868 0 0 0 .065-.311.833.833 0 0 0-.057-.267c-.008-.025-.008-.054-.021-.079a.896.896 0 0 0-.521-.464.949.949 0 0 0-.325-.063zm.394-2.812v2.113c.187.042.361.112.518.206l1.575-1.485a3.75 3.75 0 0 0-2.093-.834zm2.646 1.366-1.576 1.488c.096.148.169.311.209.485h2.221a3.407 3.407 0 0 0-.854-1.973zm.849 2.719h-2.233a1.569 1.569 0 0 1-.211.465l1.57 1.482c.512-.574.8-1.217.874-1.947zm-1.433 2.476-1.579-1.492a1.787 1.787 0 0 1-.483.189v2.112a3.726 3.726 0 0 0 2.062-.809zm-21.499 3.6c-1.033-.975-1.557-2.176-1.557-3.567V4.974h4.506v3.813h4.997v4.255h-4.997v6.638c0 .242.068.405.233.562a.795.795 0 0 0 .595.238h5.417v4.255h-5.417c-1.461 0-2.733-.5-3.777-1.488zm-12.308 1.488c-2.319 0-4.329-.788-5.976-2.343-1.631-1.541-2.459-3.433-2.459-5.621V8.787h4.507v7.984c0 1.028.373 1.886 1.142 2.622.773.73 1.684 1.087 2.786 1.087 1.083 0 1.988-.357 2.768-1.094.779-.736 1.158-1.591 1.158-2.615V8.787h4.506v7.984c0 2.192-.836 4.086-2.488 5.626-1.621 1.548-3.625 2.338-5.944 2.338zm-14.871-.964a8.469 8.469 0 0 1-3.928.943c-2.317 0-4.328-.788-5.974-2.342-1.631-1.541-2.459-3.432-2.459-5.621 0-2.185.826-4.082 2.454-5.636 1.656-1.548 3.665-2.328 5.979-2.328 2.3 0 4.292.774 5.925 2.298 1.647 1.54 2.491 3.422 2.509 5.594v8.056H16.36v-.964zm-1.158-9.655c-.771-.738-1.676-1.095-2.77-1.095-1.097 0-2.011.36-2.792 1.095-.761.731-1.135 1.594-1.135 2.635 0 1.027.374 1.885 1.142 2.622.774.729 1.687 1.087 2.785 1.087 1.096 0 1.999-.357 2.761-1.087.788-.743 1.167-1.598 1.167-2.622 0-1.037-.379-1.898-1.158-2.635z"/>
</svg>
